<svg width="2259" height="321" viewBox="0 0 2259 321" fill="none" xmlns="http://www.w3.org/2000/svg">
<path d="M82.8 243.1C67.4 243.1 53.6 240.6 41.4 235.6C29.2 230.6 19.4 223.2 12 213.4C4.8 203.6 1 191.8 0.600001 178H55.2C56 185.8 58.7 191.8 63.3 196C67.9 200 73.9 202 81.3 202C88.9 202 94.9 200.3 99.3 196.9C103.7 193.3 105.9 188.4 105.9 182.2C105.9 177 104.1 172.7 100.5 169.3C97.1 165.9 92.8 163.1 87.6 160.9C82.6 158.7 75.4 156.2 66 153.4C52.4 149.2 41.3 145 32.7 140.8C24.1 136.6 16.7 130.4 10.5 122.2C4.3 114 1.2 103.3 1.2 90.1C1.2 70.5 8.3 55.2 22.5 44.2C36.7 33 55.2 27.4 78 27.4C101.2 27.4 119.9 33 134.1 44.2C148.3 55.2 155.9 70.6 156.9 90.4H101.4C101 83.6 98.5 78.3 93.9 74.5C89.3 70.5 83.4 68.5 76.2 68.5C70 68.5 65 70.2 61.2 73.6C57.4 76.8 55.5 81.5 55.5 87.7C55.5 94.5 58.7 99.8 65.1 103.6C71.5 107.4 81.5 111.5 95.1 115.9C108.7 120.5 119.7 124.9 128.1 129.1C136.7 133.3 144.1 139.4 150.3 147.4C156.5 155.4 159.6 165.7 159.6 178.3C159.6 190.3 156.5 201.2 150.3 211C144.3 220.8 135.5 228.6 123.9 234.4C112.3 240.2 98.6 243.1 82.8 243.1ZM362.17 73.6L257.17 320.5H201.97L240.37 235.3L172.27 73.6H229.57L268.27 178.3L306.67 73.6H362.17ZM538.521 154.6C538.521 159.4 538.221 164.4 537.621 169.6H421.521C422.321 180 425.621 188 431.421 193.6C437.421 199 444.721 201.7 453.321 201.7C466.121 201.7 475.021 196.3 480.021 185.5H534.621C531.821 196.5 526.721 206.4 519.321 215.2C512.121 224 503.021 230.9 492.021 235.9C481.021 240.9 468.721 243.4 455.121 243.4C438.721 243.4 424.121 239.9 411.321 232.9C398.521 225.9 388.521 215.9 381.321 202.9C374.121 189.9 370.521 174.7 370.521 157.3C370.521 139.9 374.021 124.7 381.021 111.7C388.221 98.7 398.221 88.7 411.021 81.7C423.821 74.7 438.521 71.2 455.121 71.2C471.321 71.2 485.721 74.6 498.321 81.4C510.921 88.2 520.721 97.9 527.721 110.5C534.921 123.1 538.521 137.8 538.521 154.6ZM486.021 141.1C486.021 132.3 483.021 125.3 477.021 120.1C471.021 114.9 463.521 112.3 454.521 112.3C445.921 112.3 438.621 114.8 432.621 119.8C426.821 124.8 423.221 131.9 421.821 141.1H486.021ZM555.384 157C555.384 139.8 558.584 124.7 564.984 111.7C571.584 98.7 580.484 88.7 591.684 81.7C602.884 74.7 615.384 71.2 629.184 71.2C640.184 71.2 650.184 73.5 659.184 78.1C668.384 82.7 675.584 88.9 680.784 96.7V19H732.084V241H680.784V217C675.984 225 669.084 231.4 660.084 236.2C651.284 241 640.984 243.4 629.184 243.4C615.384 243.4 602.884 239.9 591.684 232.9C580.484 225.7 571.584 215.6 564.984 202.6C558.584 189.4 555.384 174.2 555.384 157ZM680.784 157.3C680.784 144.5 677.184 134.4 669.984 127C662.984 119.6 654.384 115.9 644.184 115.9C633.984 115.9 625.284 119.6 618.084 127C611.084 134.2 607.584 144.2 607.584 157C607.584 169.8 611.084 180 618.084 187.6C625.284 195 633.984 198.7 644.184 198.7C654.384 198.7 662.984 195 669.984 187.6C677.184 180.2 680.784 170.1 680.784 157.3ZM963.872 203.8H885.272L872.672 241H818.972L895.172 30.4H954.572L1030.77 241H976.472L963.872 203.8ZM950.672 164.2L924.572 87.1L898.772 164.2H950.672ZM1156.86 71.8C1176.06 71.8 1191.46 78.2 1203.06 91C1214.66 103.6 1220.46 121 1220.46 143.2V241H1169.46V150.1C1169.46 138.9 1166.56 130.2 1160.76 124C1154.96 117.8 1147.16 114.7 1137.36 114.7C1127.56 114.7 1119.76 117.8 1113.96 124C1108.16 130.2 1105.26 138.9 1105.26 150.1V241H1053.96V19H1105.26V96.1C1110.46 88.7 1117.56 82.8 1126.56 78.4C1135.56 74 1145.66 71.8 1156.86 71.8ZM1324.21 243.4C1309.61 243.4 1296.61 240.9 1285.21 235.9C1273.81 230.9 1264.81 224.1 1258.21 215.5C1251.61 206.7 1247.91 196.9 1247.11 186.1H1297.81C1298.41 191.9 1301.11 196.6 1305.91 200.2C1310.71 203.8 1316.61 205.6 1323.61 205.6C1330.01 205.6 1334.91 204.4 1338.31 202C1341.91 199.4 1343.71 196.1 1343.71 192.1C1343.71 187.3 1341.21 183.8 1336.21 181.6C1331.21 179.2 1323.11 176.6 1311.91 173.8C1299.91 171 1289.91 168.1 1281.91 165.1C1273.91 161.9 1267.01 157 1261.21 150.4C1255.41 143.6 1252.51 134.5 1252.51 123.1C1252.51 113.5 1255.11 104.8 1260.31 97C1265.71 89 1273.51 82.7 1283.71 78.1C1294.11 73.5 1306.41 71.2 1320.61 71.2C1341.61 71.2 1358.11 76.4 1370.11 86.8C1382.31 97.2 1389.31 111 1391.11 128.2H1343.71C1342.91 122.4 1340.31 117.8 1335.91 114.4C1331.71 111 1326.11 109.3 1319.11 109.3C1313.11 109.3 1308.51 110.5 1305.31 112.9C1302.11 115.1 1300.51 118.2 1300.51 122.2C1300.51 127 1303.01 130.6 1308.01 133C1313.21 135.4 1321.21 137.8 1332.01 140.2C1344.41 143.4 1354.51 146.6 1362.31 149.8C1370.11 152.8 1376.91 157.8 1382.71 164.8C1388.71 171.6 1391.81 180.8 1392.01 192.4C1392.01 202.2 1389.21 211 1383.61 218.8C1378.21 226.4 1370.31 232.4 1359.91 236.8C1349.71 241.2 1337.81 243.4 1324.21 243.4ZM1413.2 157C1413.2 139.8 1416.4 124.7 1422.8 111.7C1429.4 98.7 1438.3 88.7 1449.5 81.7C1460.7 74.7 1473.2 71.2 1487 71.2C1498.8 71.2 1509.1 73.6 1517.9 78.4C1526.9 83.2 1533.8 89.5 1538.6 97.3V73.6H1589.9V241H1538.6V217.3C1533.6 225.1 1526.6 231.4 1517.6 236.2C1508.8 241 1498.5 243.4 1486.7 243.4C1473.1 243.4 1460.7 239.9 1449.5 232.9C1438.3 225.7 1429.4 215.6 1422.8 202.6C1416.4 189.4 1413.2 174.2 1413.2 157ZM1538.6 157.3C1538.6 144.5 1535 134.4 1527.8 127C1520.8 119.6 1512.2 115.9 1502 115.9C1491.8 115.9 1483.1 119.6 1475.9 127C1468.9 134.2 1465.4 144.2 1465.4 157C1465.4 169.8 1468.9 180 1475.9 187.6C1483.1 195 1491.8 198.7 1502 198.7C1512.2 198.7 1520.8 195 1527.8 187.6C1535 180.2 1538.6 170.1 1538.6 157.3ZM1729.01 71.8C1748.61 71.8 1764.21 78.2 1775.81 91C1787.61 103.6 1793.51 121 1793.51 143.2V241H1742.51V150.1C1742.51 138.9 1739.61 130.2 1733.81 124C1728.01 117.8 1720.21 114.7 1710.41 114.7C1700.61 114.7 1692.81 117.8 1687.01 124C1681.21 130.2 1678.31 138.9 1678.31 150.1V241H1627.01V73.6H1678.31V95.8C1683.51 88.4 1690.51 82.6 1699.31 78.4C1708.11 74 1718.01 71.8 1729.01 71.8ZM2023.83 203.8H1945.23L1932.63 241H1878.93L1955.13 30.4H2014.53L2090.73 241H2036.43L2023.83 203.8ZM2010.63 164.2L1984.53 87.1L1958.73 164.2H2010.63ZM2165.22 19V241H2113.92V19H2165.22ZM2228.2 56.2C2219.2 56.2 2211.8 53.6 2206 48.4C2200.4 43 2197.6 36.4 2197.6 28.6C2197.6 20.6 2200.4 14 2206 8.79999C2211.8 3.39998 2219.2 0.699982 2228.2 0.699982C2237 0.699982 2244.2 3.39998 2249.8 8.79999C2255.6 14 2258.5 20.6 2258.5 28.6C2258.5 36.4 2255.6 43 2249.8 48.4C2244.2 53.6 2237 56.2 2228.2 56.2ZM2253.7 73.6V241H2202.4V73.6H2253.7Z" fill="white"/>
</svg>
